<?xml version="1.0" standalone="no"?>
<!DOCTYPE svg PUBLIC "-//W3C//DTD SVG 20010904//EN"
 "http://www.w3.org/TR/2001/REC-SVG-20010904/DTD/svg10.dtd">
<svg version="1.0" xmlns="http://www.w3.org/2000/svg"
 width="805.000000pt" height="1280.000000pt" viewBox="0 0 805.000000 1280.000000"
 preserveAspectRatio="xMidYMid meet">
<metadata>
Created by potrace 1.15, written by Peter Selinger 2001-2017
</metadata>
<g transform="translate(0.000000,1280.000000) scale(0.100000,-0.100000)"
fill="#000000" stroke="none">
<path d="M3630 12409 c-968 -55 -1747 -382 -2350 -988 -686 -689 -1027 -1624
-1027 -2811 0 -1157 344 -2080 1031 -2765 318 -317 650 -526 1056 -666 619
-214 1359 -213 1965 2 216 77 572 271 738 401 l37 30 0 -309 c0 -1512 -227
-2625 -669 -3289 -332 -498 -774 -721 -1339 -675 -382 31 -621 170 -622 362 0
92 94 189 364 372 83 56 184 133 224 171 166 157 260 369 280 627 45 571 -255
1026 -791 1204 -251 82 -583 96 -874 35 -520 -108 -913 -467 -1057 -962 -41
-141 -57 -252 -63 -434 -16 -467 101 -857 365 -1214 72 -98 253 -283 367 -375
287 -233 646 -410 1030 -509 463 -118 1024 -145 1575 -75 1292 163 2289 835
3002 2023 490 814 792 1838 902 3056 35 382 41 542 40 1105 0 613 -9 812 -60
1265 -187 1693 -775 2966 -1719 3725 -640 515 -1447 748 -2405 694z m607 -924
c370 -72 602 -356 718 -878 80 -364 117 -750 137 -1441 12 -428 2 -1062 -22
-1401 -66 -918 -205 -1369 -495 -1602 -161 -129 -342 -181 -593 -170 -475 20
-738 299 -862 915 -90 448 -124 956 -124 1842 0 891 35 1414 125 1854 104 513
307 780 659 871 129 34 314 37 457 10z"/>
</g>
</svg>
